<mxfile host="app.diagrams.net" agent="Mozilla/5.0 (Windows NT 10.0; Win64; x64) AppleWebKit/537.36 (KHTML, like Gecko) Chrome/135.0.0.0 Safari/537.36" version="26.2.14">
  <diagram name="SAP-MES" id="LYEeIje9SqZyWHTVqlJM">
    <mxGraphModel dx="890" dy="467" grid="1" gridSize="10" guides="1" tooltips="1" connect="1" arrows="1" fold="1" page="1" pageScale="1" pageWidth="850" pageHeight="1100" math="0" shadow="0">
      <root>
        <mxCell id="0" />
        <mxCell id="1" parent="0" />
        <mxCell id="aC4bHIneP-dO9CCa_mvw-2" value="" style="rounded=0;whiteSpace=wrap;html=1;fillColor=#E6E6E6;" vertex="1" parent="1">
          <mxGeometry x="270" y="347" width="850" height="90" as="geometry" />
        </mxCell>
        <mxCell id="aC4bHIneP-dO9CCa_mvw-3" value="计划层" style="text;strokeColor=none;fillColor=none;html=1;fontSize=24;fontStyle=1;verticalAlign=middle;align=center;" vertex="1" parent="1">
          <mxGeometry x="20" y="367" width="100" height="40" as="geometry" />
        </mxCell>
        <mxCell id="aC4bHIneP-dO9CCa_mvw-4" value="" style="html=1;shadow=0;dashed=0;align=center;verticalAlign=middle;shape=mxgraph.arrows2.arrow;dy=0.67;dx=20;notch=0;" vertex="1" parent="1">
          <mxGeometry x="345" y="372" width="70" height="30" as="geometry" />
        </mxCell>
        <mxCell id="aC4bHIneP-dO9CCa_mvw-5" value="" style="group" vertex="1" connectable="0" parent="1">
          <mxGeometry x="285" y="372" width="60" height="70" as="geometry" />
        </mxCell>
        <mxCell id="aC4bHIneP-dO9CCa_mvw-6" value="1" style="ellipse;whiteSpace=wrap;html=1;aspect=fixed;rotation=0;strokeColor=#2D7600;gradientDirection=east;fillColor=#60a917;rounded=0;pointerEvents=0;fontFamily=Helvetica;fontSize=16;spacingTop=4;spacingBottom=4;spacingLeft=4;spacingRight=4;points=[];fontStyle=1;snapToPoint=0;fontColor=#ffffff;" vertex="1" parent="aC4bHIneP-dO9CCa_mvw-5">
          <mxGeometry x="15" width="30" height="30" as="geometry" />
        </mxCell>
        <mxCell id="aC4bHIneP-dO9CCa_mvw-7" value="销售需求订单" style="text;html=1;align=center;verticalAlign=middle;whiteSpace=wrap;rounded=0;" vertex="1" parent="aC4bHIneP-dO9CCa_mvw-5">
          <mxGeometry y="30" width="60" height="30" as="geometry" />
        </mxCell>
        <mxCell id="aC4bHIneP-dO9CCa_mvw-8" value="" style="group" vertex="1" connectable="0" parent="1">
          <mxGeometry x="410" y="372" width="60" height="60" as="geometry" />
        </mxCell>
        <mxCell id="aC4bHIneP-dO9CCa_mvw-9" value="2" style="ellipse;whiteSpace=wrap;html=1;aspect=fixed;rotation=0;strokeColor=#2D7600;gradientDirection=east;fillColor=#60a917;rounded=0;pointerEvents=0;fontFamily=Helvetica;fontSize=16;spacingTop=4;spacingBottom=4;spacingLeft=4;spacingRight=4;points=[];fontStyle=1;snapToPoint=0;fontColor=#ffffff;" vertex="1" parent="aC4bHIneP-dO9CCa_mvw-8">
          <mxGeometry x="15" width="30" height="30" as="geometry" />
        </mxCell>
        <mxCell id="aC4bHIneP-dO9CCa_mvw-10" value="生产订单" style="text;html=1;align=center;verticalAlign=middle;whiteSpace=wrap;rounded=0;" vertex="1" parent="aC4bHIneP-dO9CCa_mvw-8">
          <mxGeometry y="30" width="60" height="30" as="geometry" />
        </mxCell>
        <mxCell id="aC4bHIneP-dO9CCa_mvw-11" value="" style="group" vertex="1" connectable="0" parent="1">
          <mxGeometry x="496" y="300" width="190" height="60" as="geometry" />
        </mxCell>
        <mxCell id="aC4bHIneP-dO9CCa_mvw-12" value="0" style="ellipse;whiteSpace=wrap;html=1;aspect=fixed;rotation=0;strokeColor=#2D7600;gradientDirection=east;fillColor=#60a917;rounded=0;pointerEvents=0;fontFamily=Helvetica;fontSize=16;spacingTop=4;spacingBottom=4;spacingLeft=4;spacingRight=4;points=[];fontStyle=1;snapToPoint=0;fontColor=#ffffff;" vertex="1" parent="aC4bHIneP-dO9CCa_mvw-11">
          <mxGeometry x="15" width="30" height="30" as="geometry" />
        </mxCell>
        <mxCell id="aC4bHIneP-dO9CCa_mvw-13" value="工艺路线&amp;nbsp;Routing、BOM" style="text;html=1;align=center;verticalAlign=middle;whiteSpace=wrap;rounded=0;" vertex="1" parent="aC4bHIneP-dO9CCa_mvw-11">
          <mxGeometry x="45" width="145" height="30" as="geometry" />
        </mxCell>
        <mxCell id="aC4bHIneP-dO9CCa_mvw-14" value="" style="html=1;shadow=0;dashed=0;align=center;verticalAlign=middle;shape=mxgraph.arrows2.arrow;dy=0.67;dx=20;notch=0;rotation=-225;" vertex="1" parent="1">
          <mxGeometry x="450" y="341" width="70" height="30" as="geometry" />
        </mxCell>
        <mxCell id="aC4bHIneP-dO9CCa_mvw-15" value="" style="html=1;shadow=0;dashed=0;align=center;verticalAlign=middle;shape=mxgraph.arrows2.arrow;dy=0.67;dx=20;notch=0;" vertex="1" parent="1">
          <mxGeometry x="485" y="372" width="70" height="30" as="geometry" />
        </mxCell>
        <mxCell id="aC4bHIneP-dO9CCa_mvw-16" value="SAP" style="ellipse;whiteSpace=wrap;html=1;aspect=fixed;rotation=0;strokeColor=#2D7600;gradientDirection=east;fillColor=#60a917;rounded=0;pointerEvents=0;fontFamily=Helvetica;fontSize=12;spacingTop=4;spacingBottom=4;spacingLeft=4;spacingRight=4;points=[];fontStyle=1;snapToPoint=0;fontColor=#ffffff;" vertex="1" parent="1">
          <mxGeometry x="990" y="302" width="30" height="30" as="geometry" />
        </mxCell>
        <mxCell id="aC4bHIneP-dO9CCa_mvw-17" value="" style="html=1;shadow=0;dashed=0;align=center;verticalAlign=middle;shape=mxgraph.arrows2.arrow;dy=0.67;dx=20;notch=0;" vertex="1" parent="1">
          <mxGeometry x="615" y="372" width="70" height="30" as="geometry" />
        </mxCell>
        <mxCell id="aC4bHIneP-dO9CCa_mvw-18" value="" style="group" vertex="1" connectable="0" parent="1">
          <mxGeometry x="555" y="370" width="62" height="60" as="geometry" />
        </mxCell>
        <mxCell id="aC4bHIneP-dO9CCa_mvw-19" value="" style="group" vertex="1" connectable="0" parent="aC4bHIneP-dO9CCa_mvw-18">
          <mxGeometry width="62" height="60" as="geometry" />
        </mxCell>
        <mxCell id="aC4bHIneP-dO9CCa_mvw-20" value="计划下达" style="text;html=1;align=center;verticalAlign=middle;whiteSpace=wrap;rounded=0;" vertex="1" parent="aC4bHIneP-dO9CCa_mvw-19">
          <mxGeometry y="30" width="60" height="30" as="geometry" />
        </mxCell>
        <mxCell id="aC4bHIneP-dO9CCa_mvw-21" value="3" style="ellipse;whiteSpace=wrap;html=1;aspect=fixed;rotation=0;gradientDirection=east;rounded=0;pointerEvents=0;fontFamily=Helvetica;fontSize=16;spacingTop=4;spacingBottom=4;spacingLeft=4;spacingRight=4;points=[];fontStyle=1;snapToPoint=0;" vertex="1" parent="aC4bHIneP-dO9CCa_mvw-18">
          <mxGeometry x="15" y="1" width="30" height="30" as="geometry" />
        </mxCell>
        <mxCell id="aC4bHIneP-dO9CCa_mvw-22" value="" style="group" vertex="1" connectable="0" parent="1">
          <mxGeometry x="689" y="369" width="62" height="60" as="geometry" />
        </mxCell>
        <mxCell id="aC4bHIneP-dO9CCa_mvw-23" value="" style="group" vertex="1" connectable="0" parent="aC4bHIneP-dO9CCa_mvw-22">
          <mxGeometry width="62" height="60" as="geometry" />
        </mxCell>
        <mxCell id="aC4bHIneP-dO9CCa_mvw-24" value="计划调整" style="text;html=1;align=center;verticalAlign=middle;whiteSpace=wrap;rounded=0;" vertex="1" parent="aC4bHIneP-dO9CCa_mvw-23">
          <mxGeometry y="30" width="60" height="30" as="geometry" />
        </mxCell>
        <mxCell id="aC4bHIneP-dO9CCa_mvw-25" value="4" style="ellipse;whiteSpace=wrap;html=1;aspect=fixed;rotation=0;gradientDirection=east;rounded=0;pointerEvents=0;fontFamily=Helvetica;fontSize=16;spacingTop=4;spacingBottom=4;spacingLeft=4;spacingRight=4;points=[];fontStyle=1;snapToPoint=0;" vertex="1" parent="aC4bHIneP-dO9CCa_mvw-22">
          <mxGeometry x="15" y="1" width="30" height="30" as="geometry" />
        </mxCell>
        <mxCell id="aC4bHIneP-dO9CCa_mvw-26" value="APS" style="ellipse;whiteSpace=wrap;html=1;aspect=fixed;rotation=0;gradientDirection=east;rounded=0;pointerEvents=0;fontFamily=Helvetica;fontSize=12;spacingTop=4;spacingBottom=4;spacingLeft=4;spacingRight=4;points=[];fontStyle=1;snapToPoint=0;" vertex="1" parent="1">
          <mxGeometry x="1039" y="302" width="30" height="30" as="geometry" />
        </mxCell>
        <mxCell id="aC4bHIneP-dO9CCa_mvw-27" value="" style="rounded=0;whiteSpace=wrap;html=1;fillColor=#bac8d3;strokeColor=#23445d;" vertex="1" parent="1">
          <mxGeometry x="270" y="467" width="850" height="430" as="geometry" />
        </mxCell>
        <mxCell id="aC4bHIneP-dO9CCa_mvw-28" value="MES层" style="text;strokeColor=none;fillColor=none;html=1;fontSize=24;fontStyle=1;verticalAlign=middle;align=center;" vertex="1" parent="1">
          <mxGeometry x="120" y="662" width="100" height="40" as="geometry" />
        </mxCell>
        <mxCell id="aC4bHIneP-dO9CCa_mvw-29" value="" style="group" vertex="1" connectable="0" parent="1">
          <mxGeometry x="779" y="475" width="90" height="60" as="geometry" />
        </mxCell>
        <mxCell id="aC4bHIneP-dO9CCa_mvw-30" value="" style="group" vertex="1" connectable="0" parent="aC4bHIneP-dO9CCa_mvw-29">
          <mxGeometry width="90" height="60" as="geometry" />
        </mxCell>
        <mxCell id="aC4bHIneP-dO9CCa_mvw-31" value="打印生产流转卡" style="text;html=1;align=center;verticalAlign=middle;whiteSpace=wrap;rounded=0;" vertex="1" parent="aC4bHIneP-dO9CCa_mvw-30">
          <mxGeometry x="-9" y="30" width="90" height="30" as="geometry" />
        </mxCell>
        <mxCell id="aC4bHIneP-dO9CCa_mvw-32" value="5" style="ellipse;whiteSpace=wrap;html=1;aspect=fixed;rotation=0;gradientDirection=east;rounded=0;pointerEvents=0;fontFamily=Helvetica;fontSize=16;spacingTop=4;spacingBottom=4;spacingLeft=4;spacingRight=4;points=[];fontStyle=1;snapToPoint=0;fillColor=#1ba1e2;fontColor=#ffffff;strokeColor=#006EAF;" vertex="1" parent="aC4bHIneP-dO9CCa_mvw-29">
          <mxGeometry x="15" y="1" width="30" height="30" as="geometry" />
        </mxCell>
        <mxCell id="aC4bHIneP-dO9CCa_mvw-33" value="MES" style="ellipse;whiteSpace=wrap;html=1;aspect=fixed;rotation=0;gradientDirection=east;rounded=0;pointerEvents=0;fontFamily=Helvetica;fontSize=12;spacingTop=4;spacingBottom=4;spacingLeft=4;spacingRight=4;points=[];fontStyle=1;snapToPoint=0;fillColor=#1ba1e2;fontColor=#ffffff;strokeColor=#006EAF;" vertex="1" parent="1">
          <mxGeometry x="1089" y="302" width="30" height="30" as="geometry" />
        </mxCell>
        <mxCell id="aC4bHIneP-dO9CCa_mvw-34" value="" style="group" vertex="1" connectable="0" parent="1">
          <mxGeometry x="639" y="475" width="90" height="60" as="geometry" />
        </mxCell>
        <mxCell id="aC4bHIneP-dO9CCa_mvw-35" value="" style="group" vertex="1" connectable="0" parent="aC4bHIneP-dO9CCa_mvw-34">
          <mxGeometry width="90" height="60" as="geometry" />
        </mxCell>
        <mxCell id="aC4bHIneP-dO9CCa_mvw-36" value="流转卡下发" style="text;html=1;align=center;verticalAlign=middle;whiteSpace=wrap;rounded=0;" vertex="1" parent="aC4bHIneP-dO9CCa_mvw-35">
          <mxGeometry x="-9" y="30" width="90" height="30" as="geometry" />
        </mxCell>
        <mxCell id="aC4bHIneP-dO9CCa_mvw-37" value="6" style="ellipse;whiteSpace=wrap;html=1;aspect=fixed;rotation=0;gradientDirection=east;rounded=0;pointerEvents=0;fontFamily=Helvetica;fontSize=16;spacingTop=4;spacingBottom=4;spacingLeft=4;spacingRight=4;points=[];fontStyle=1;snapToPoint=0;fillColor=#1ba1e2;fontColor=#ffffff;strokeColor=#006EAF;" vertex="1" parent="aC4bHIneP-dO9CCa_mvw-34">
          <mxGeometry x="15" y="1" width="30" height="30" as="geometry" />
        </mxCell>
        <mxCell id="aC4bHIneP-dO9CCa_mvw-38" value="" style="group" vertex="1" connectable="0" parent="1">
          <mxGeometry x="310" y="548" width="90" height="60" as="geometry" />
        </mxCell>
        <mxCell id="aC4bHIneP-dO9CCa_mvw-39" value="" style="group" vertex="1" connectable="0" parent="aC4bHIneP-dO9CCa_mvw-38">
          <mxGeometry width="90" height="60" as="geometry" />
        </mxCell>
        <mxCell id="aC4bHIneP-dO9CCa_mvw-40" value="自动绕线" style="text;html=1;align=center;verticalAlign=middle;whiteSpace=wrap;rounded=0;" vertex="1" parent="aC4bHIneP-dO9CCa_mvw-39">
          <mxGeometry x="-15" y="30" width="90" height="30" as="geometry" />
        </mxCell>
        <mxCell id="aC4bHIneP-dO9CCa_mvw-41" value="7" style="ellipse;whiteSpace=wrap;html=1;aspect=fixed;rotation=0;gradientDirection=east;rounded=0;pointerEvents=0;fontFamily=Helvetica;fontSize=16;spacingTop=4;spacingBottom=4;spacingLeft=4;spacingRight=4;points=[];fontStyle=1;snapToPoint=0;fillColor=#1ba1e2;fontColor=#ffffff;strokeColor=#006EAF;" vertex="1" parent="aC4bHIneP-dO9CCa_mvw-38">
          <mxGeometry x="15" y="1" width="30" height="30" as="geometry" />
        </mxCell>
        <mxCell id="aC4bHIneP-dO9CCa_mvw-42" value="" style="group" vertex="1" connectable="0" parent="1">
          <mxGeometry x="400" y="548" width="90" height="60" as="geometry" />
        </mxCell>
        <mxCell id="aC4bHIneP-dO9CCa_mvw-43" value="" style="group" vertex="1" connectable="0" parent="aC4bHIneP-dO9CCa_mvw-42">
          <mxGeometry width="90" height="60" as="geometry" />
        </mxCell>
        <mxCell id="aC4bHIneP-dO9CCa_mvw-44" value="&amp;nbsp;浸锡" style="text;html=1;align=center;verticalAlign=middle;whiteSpace=wrap;rounded=0;" vertex="1" parent="aC4bHIneP-dO9CCa_mvw-43">
          <mxGeometry x="-15" y="30" width="90" height="30" as="geometry" />
        </mxCell>
        <mxCell id="aC4bHIneP-dO9CCa_mvw-45" value="8" style="ellipse;whiteSpace=wrap;html=1;aspect=fixed;rotation=0;gradientDirection=east;rounded=0;pointerEvents=0;fontFamily=Helvetica;fontSize=16;spacingTop=4;spacingBottom=4;spacingLeft=4;spacingRight=4;points=[];fontStyle=1;snapToPoint=0;fillColor=#1ba1e2;fontColor=#ffffff;strokeColor=#006EAF;" vertex="1" parent="aC4bHIneP-dO9CCa_mvw-42">
          <mxGeometry x="15" y="1" width="30" height="30" as="geometry" />
        </mxCell>
        <mxCell id="aC4bHIneP-dO9CCa_mvw-46" value="" style="group" vertex="1" connectable="0" parent="1">
          <mxGeometry x="490" y="548" width="90" height="60" as="geometry" />
        </mxCell>
        <mxCell id="aC4bHIneP-dO9CCa_mvw-47" value="" style="group" vertex="1" connectable="0" parent="aC4bHIneP-dO9CCa_mvw-46">
          <mxGeometry width="90" height="60" as="geometry" />
        </mxCell>
        <mxCell id="aC4bHIneP-dO9CCa_mvw-48" value="&amp;nbsp;浸锡检查" style="text;html=1;align=center;verticalAlign=middle;whiteSpace=wrap;rounded=0;" vertex="1" parent="aC4bHIneP-dO9CCa_mvw-47">
          <mxGeometry x="-15" y="30" width="90" height="30" as="geometry" />
        </mxCell>
        <mxCell id="aC4bHIneP-dO9CCa_mvw-49" value="9" style="ellipse;whiteSpace=wrap;html=1;aspect=fixed;rotation=0;gradientDirection=east;rounded=0;pointerEvents=0;fontFamily=Helvetica;fontSize=16;spacingTop=4;spacingBottom=4;spacingLeft=4;spacingRight=4;points=[];fontStyle=1;snapToPoint=0;fillColor=#1ba1e2;fontColor=#ffffff;strokeColor=#006EAF;" vertex="1" parent="aC4bHIneP-dO9CCa_mvw-46">
          <mxGeometry x="15" y="1" width="30" height="30" as="geometry" />
        </mxCell>
        <mxCell id="aC4bHIneP-dO9CCa_mvw-50" value="" style="group" vertex="1" connectable="0" parent="1">
          <mxGeometry x="570" y="548" width="90" height="60" as="geometry" />
        </mxCell>
        <mxCell id="aC4bHIneP-dO9CCa_mvw-51" value="" style="group" vertex="1" connectable="0" parent="aC4bHIneP-dO9CCa_mvw-50">
          <mxGeometry width="90" height="60" as="geometry" />
        </mxCell>
        <mxCell id="aC4bHIneP-dO9CCa_mvw-52" value="自动装配" style="text;html=1;align=center;verticalAlign=middle;whiteSpace=wrap;rounded=0;" vertex="1" parent="aC4bHIneP-dO9CCa_mvw-51">
          <mxGeometry x="-15" y="30" width="90" height="30" as="geometry" />
        </mxCell>
        <mxCell id="aC4bHIneP-dO9CCa_mvw-53" value="10" style="ellipse;whiteSpace=wrap;html=1;aspect=fixed;rotation=0;gradientDirection=east;rounded=0;pointerEvents=0;fontFamily=Helvetica;fontSize=16;spacingTop=4;spacingBottom=4;spacingLeft=4;spacingRight=4;points=[];fontStyle=1;snapToPoint=0;fillColor=#1ba1e2;fontColor=#ffffff;strokeColor=#006EAF;" vertex="1" parent="aC4bHIneP-dO9CCa_mvw-50">
          <mxGeometry x="15" y="1" width="30" height="30" as="geometry" />
        </mxCell>
        <mxCell id="aC4bHIneP-dO9CCa_mvw-54" value="" style="group" vertex="1" connectable="0" parent="1">
          <mxGeometry x="642" y="548" width="90" height="60" as="geometry" />
        </mxCell>
        <mxCell id="aC4bHIneP-dO9CCa_mvw-55" value="" style="group" vertex="1" connectable="0" parent="aC4bHIneP-dO9CCa_mvw-54">
          <mxGeometry width="90" height="60" as="geometry" />
        </mxCell>
        <mxCell id="aC4bHIneP-dO9CCa_mvw-56" value="成品检查" style="text;html=1;align=center;verticalAlign=middle;whiteSpace=wrap;rounded=0;" vertex="1" parent="aC4bHIneP-dO9CCa_mvw-55">
          <mxGeometry x="-15" y="30" width="90" height="30" as="geometry" />
        </mxCell>
        <mxCell id="aC4bHIneP-dO9CCa_mvw-57" value="11" style="ellipse;whiteSpace=wrap;html=1;aspect=fixed;rotation=0;gradientDirection=east;rounded=0;pointerEvents=0;fontFamily=Helvetica;fontSize=16;spacingTop=4;spacingBottom=4;spacingLeft=4;spacingRight=4;points=[];fontStyle=1;snapToPoint=0;fillColor=#1ba1e2;fontColor=#ffffff;strokeColor=#006EAF;" vertex="1" parent="aC4bHIneP-dO9CCa_mvw-54">
          <mxGeometry x="15" y="1" width="30" height="30" as="geometry" />
        </mxCell>
        <mxCell id="aC4bHIneP-dO9CCa_mvw-58" value="" style="group" vertex="1" connectable="0" parent="1">
          <mxGeometry x="732" y="549" width="90" height="60" as="geometry" />
        </mxCell>
        <mxCell id="aC4bHIneP-dO9CCa_mvw-59" value="" style="group" vertex="1" connectable="0" parent="aC4bHIneP-dO9CCa_mvw-58">
          <mxGeometry width="90" height="60" as="geometry" />
        </mxCell>
        <mxCell id="aC4bHIneP-dO9CCa_mvw-60" value="自动测试包装" style="text;html=1;align=center;verticalAlign=middle;whiteSpace=wrap;rounded=0;" vertex="1" parent="aC4bHIneP-dO9CCa_mvw-59">
          <mxGeometry x="-15" y="30" width="90" height="30" as="geometry" />
        </mxCell>
        <mxCell id="aC4bHIneP-dO9CCa_mvw-61" value="12" style="ellipse;whiteSpace=wrap;html=1;aspect=fixed;rotation=0;gradientDirection=east;rounded=0;pointerEvents=0;fontFamily=Helvetica;fontSize=16;spacingTop=4;spacingBottom=4;spacingLeft=4;spacingRight=4;points=[];fontStyle=1;snapToPoint=0;fillColor=#1ba1e2;fontColor=#ffffff;strokeColor=#006EAF;" vertex="1" parent="aC4bHIneP-dO9CCa_mvw-58">
          <mxGeometry x="15" y="1" width="30" height="30" as="geometry" />
        </mxCell>
        <mxCell id="aC4bHIneP-dO9CCa_mvw-62" value="" style="group" vertex="1" connectable="0" parent="1">
          <mxGeometry x="832" y="548" width="90" height="60" as="geometry" />
        </mxCell>
        <mxCell id="aC4bHIneP-dO9CCa_mvw-63" value="" style="group" vertex="1" connectable="0" parent="aC4bHIneP-dO9CCa_mvw-62">
          <mxGeometry width="90" height="60" as="geometry" />
        </mxCell>
        <mxCell id="aC4bHIneP-dO9CCa_mvw-64" value="真空包装" style="text;html=1;align=center;verticalAlign=middle;whiteSpace=wrap;rounded=0;" vertex="1" parent="aC4bHIneP-dO9CCa_mvw-63">
          <mxGeometry x="-15" y="30" width="90" height="30" as="geometry" />
        </mxCell>
        <mxCell id="aC4bHIneP-dO9CCa_mvw-65" value="13" style="ellipse;whiteSpace=wrap;html=1;aspect=fixed;rotation=0;gradientDirection=east;rounded=0;pointerEvents=0;fontFamily=Helvetica;fontSize=16;spacingTop=4;spacingBottom=4;spacingLeft=4;spacingRight=4;points=[];fontStyle=1;snapToPoint=0;fillColor=#1ba1e2;fontColor=#ffffff;strokeColor=#006EAF;" vertex="1" parent="aC4bHIneP-dO9CCa_mvw-62">
          <mxGeometry x="15" y="1" width="30" height="30" as="geometry" />
        </mxCell>
        <mxCell id="aC4bHIneP-dO9CCa_mvw-69" value="&lt;span style=&quot;&quot;&gt;SAP PP 的核心职能是&lt;font style=&quot;color: rgb(255, 0, 0);&quot;&gt; MRP (物料需求计划) 和能力计划 (Capacity Planning)&lt;/font&gt;。它会考虑销售订单、预测、现有库存、安全库存、采购提前期等因素，计算出需要生产哪些产品、数量、时间，并生成生产订单&lt;/span&gt;" style="shape=callout;whiteSpace=wrap;html=1;perimeter=calloutPerimeter;opacity=50;size=30;position=0.33;verticalAlign=top;align=left;" vertex="1" parent="1">
          <mxGeometry x="251.25" y="250" width="207.5" height="126.5" as="geometry" />
        </mxCell>
        <mxCell id="aC4bHIneP-dO9CCa_mvw-70" value="&lt;div&gt;*&amp;nbsp; &amp;nbsp;**SAP PP 就像公司的生产计划部门：** 负责制定整个公司的生产总计划、根据订单和库存计算需要生产什么、什么时候生产、理论上需要多少物料和能力。它看的是整个生产链条和与其他部门（销售、采购、财务）的联动。&lt;/div&gt;&lt;div&gt;*&amp;nbsp; &amp;nbsp;**MES 就像车间主任：** 负责拿到生产计划部门的指令后，将其分解到具体的生产线、机器、工人，指挥现场的操作，实时跟踪生产进度、物料消耗、设备状态，并把实际情况反馈给计划部门。&lt;/div&gt;" style="text;html=1;align=left;verticalAlign=top;resizable=0;points=[];autosize=1;strokeColor=none;fillColor=none;" vertex="1" parent="1">
          <mxGeometry x="74" y="970" width="1220" height="40" as="geometry" />
        </mxCell>
        <mxCell id="aC4bHIneP-dO9CCa_mvw-72" value="SAP&lt;div&gt;SD&lt;/div&gt;" style="shape=process;whiteSpace=wrap;html=1;backgroundOutline=1;align=center;verticalAlign=top;fontFamily=Helvetica;fontSize=12;fontColor=default;autosize=1;resizable=0;fillColor=none;gradientColor=none;textOpacity=50;labelBackgroundColor=default;" vertex="1" parent="1">
          <mxGeometry x="251.25" y="420" width="50" height="40" as="geometry" />
        </mxCell>
      </root>
    </mxGraphModel>
  </diagram>
</mxfile>
